HIERARCHY
ROOT hip
{
  OFFSET 5.51535 103.731 -2.80141
  CHANNELS 6 Xposition Yposition Zposition Zrotation Xrotation Yrotation
  JOINT abdomen
  {
    OFFSET 0 -1.186 -1.5018
    CHANNELS 6 Xposition Yposition Zposition Zrotation Xrotation Yrotation
    JOINT abdomen2
    {
      OFFSET 0 9.964 0.2134
      CHANNELS 6 Xposition Yposition Zposition Zrotation Xrotation Yrotation
      JOINT chest
      {
        OFFSET 0 13.134 -3.2573
        CHANNELS 6 Xposition Yposition Zposition Zrotation Xrotation Yrotation
        JOINT neck
        {
          OFFSET 0 20.686 -1.6905
          CHANNELS 6 Xposition Yposition Zposition Zrotation Xrotation Yrotation
          JOINT head
          {
            OFFSET 0 7.23801 -0.1237
            CHANNELS 6 Xposition Yposition Zposition Zrotation Xrotation Yrotation
            End Site
            {
              OFFSET 0 0 0
            }
          }
        }
        JOINT lCollar
        {
          OFFSET 1.7069 20.075 5.0056
          CHANNELS 6 Xposition Yposition Zposition Zrotation Xrotation Yrotation
          JOINT lShldr
          {
            OFFSET 13.6458 -0.0470195 -4.849
            CHANNELS 6 Xposition Yposition Zposition Zrotation Xrotation Yrotation
            JOINT lForeArm
            {
              OFFSET 28.3255 -0.97589 2.2888
              CHANNELS 6 Xposition Yposition Zposition Zrotation Xrotation Yrotation
              JOINT lHand
              {
                OFFSET 22.1583 -0.529998 10.8316
                CHANNELS 6 Xposition Yposition Zposition Zrotation Xrotation Yrotation
                JOINT lThumb1
                {
                  OFFSET 0.786 0.111997 2.5817
                  CHANNELS 6 Xposition Yposition Zposition Zrotation Xrotation Yrotation
                  JOINT lThumb2
                  {
                    OFFSET 0.360097 -0.877999 4.2331
                    CHANNELS 6 Xposition Yposition Zposition Zrotation Xrotation Yrotation
                    JOINT lThumb2_End
                    {
                      OFFSET 1.8127 -1.21601 2.2227
                      CHANNELS 6 Xposition Yposition Zposition Zrotation Xrotation Yrotation
                      End Site
                      {
                        OFFSET 0.0180981 -0.012195 0.0222007
                      }
                    }
                  }
                }
                JOINT lCarpal1
                {
                  OFFSET 0.9571 1.114 1.7695
                  CHANNELS 6 Xposition Yposition Zposition Zrotation Xrotation Yrotation
                  JOINT lIndex1
                  {
                    OFFSET 4.12461 0.486992 4.1451
                    CHANNELS 6 Xposition Yposition Zposition Zrotation Xrotation Yrotation
                    JOINT lIndex2
                    {
                      OFFSET 3.4052 -1.45401 2.7682
                      CHANNELS 6 Xposition Yposition Zposition Zrotation Xrotation Yrotation
                      JOINT lIndex2_End
                      {
                        OFFSET 1.45309 -1.79499 1.2713
                        CHANNELS 6 Xposition Yposition Zposition Zrotation Xrotation Yrotation
                        End Site
                        {
                          OFFSET 0.0144979 -0.0179083 0.0126995
                        }
                      }
                    }
                  }
                  JOINT lMid1
                  {
                    OFFSET 5.6954 0.209987 2.1184
                    CHANNELS 6 Xposition Yposition Zposition Zrotation Xrotation Yrotation
                    JOINT lMid2
                    {
                      OFFSET 3.9766 -1.53999 2.3863
                      CHANNELS 6 Xposition Yposition Zposition Zrotation Xrotation Yrotation
                      JOINT lMid2_End
                      {
                        OFFSET 1.4042 -1.926 1.125
                        CHANNELS 6 Xposition Yposition Zposition Zrotation Xrotation Yrotation
                        End Site
                        {
                          OFFSET 0.013999 -0.0193044 0.011301
                        }
                      }
                    }
                  }
                }
                JOINT lCarpal2
                {
                  OFFSET 2.0956 0.66 -0.3894
                  CHANNELS 6 Xposition Yposition Zposition Zrotation Xrotation Yrotation
                  JOINT lRing1
                  {
                    OFFSET 5.0395 -0.090013 2.4971
                    CHANNELS 6 Xposition Yposition Zposition Zrotation Xrotation Yrotation
                    JOINT lRing2
                    {
                      OFFSET 3.7921 -1.55199 1.4806
                      CHANNELS 6 Xposition Yposition Zposition Zrotation Xrotation Yrotation
                      JOINT lRing2_End
                      {
                        OFFSET 1.4655 -1.808 0.9609
                        CHANNELS 6 Xposition Yposition Zposition Zrotation Xrotation Yrotation
                        End Site
                        {
                          OFFSET 0.0147015 -0.0181014 0.00959957
                        }
                      }
                    }
                  }
                  JOINT lPinky1
                  {
                    OFFSET 4.9141 -1.269 0.3591
                    CHANNELS 6 Xposition Yposition Zposition Zrotation Xrotation Yrotation
                    JOINT lPinky2
                    {
                      OFFSET 3.1477 -1.685 0.8462
                      CHANNELS 6 Xposition Yposition Zposition Zrotation Xrotation Yrotation
                      JOINT lPinky2_End
                      {
                        OFFSET 0.805498 -1.58501 0.795499
                        CHANNELS 6 Xposition Yposition Zposition Zrotation Xrotation Yrotation
                        End Site
                        {
                          OFFSET 0.00809703 -0.0157944 0.00799848
                        }
                      }
                    }
                  }
                }
              }
            }
          }
        }
        JOINT rCollar
        {
          OFFSET -1.7069 20.075 5.0056
          CHANNELS 6 Xposition Yposition Zposition Zrotation Xrotation Yrotation
          JOINT rShldr
          {
            OFFSET -13.6458 -0.0470107 -4.849
            CHANNELS 6 Xposition Yposition Zposition Zrotation Xrotation Yrotation
            JOINT rForeArm
            {
              OFFSET -28.3255 -0.975895 2.2888
              CHANNELS 6 Xposition Yposition Zposition Zrotation Xrotation Yrotation
              JOINT rHand
              {
                OFFSET -22.1583 -0.530007 10.8316
                CHANNELS 6 Xposition Yposition Zposition Zrotation Xrotation Yrotation
                JOINT rThumb1
                {
                  OFFSET -0.785997 0.112005 2.5817
                  CHANNELS 6 Xposition Yposition Zposition Zrotation Xrotation Yrotation
                  JOINT rThumb2
                  {
                    OFFSET -0.360106 -0.877994 4.2331
                    CHANNELS 6 Xposition Yposition Zposition Zrotation Xrotation Yrotation
                    JOINT rThumb2_End
                    {
                      OFFSET -1.8127 -1.216 2.2227
                      CHANNELS 6 Xposition Yposition Zposition Zrotation Xrotation Yrotation
                      End Site
                      {
                        OFFSET -0.0180972 -0.0121973 0.0222005
                      }
                    }
                  }
                }
                JOINT rCarpal1
                {
                  OFFSET -0.9571 1.114 1.7695
                  CHANNELS 6 Xposition Yposition Zposition Zrotation Xrotation Yrotation
                  JOINT rIndex1
                  {
                    OFFSET -4.1246 0.487011 4.1451
                    CHANNELS 6 Xposition Yposition Zposition Zrotation Xrotation Yrotation
                    JOINT rIndex2
                    {
                      OFFSET -3.4052 -1.45401 2.7682
                      CHANNELS 6 Xposition Yposition Zposition Zrotation Xrotation Yrotation
                      JOINT rIndex2_End
                      {
                        OFFSET -1.4531 -1.795 1.2713
                        CHANNELS 6 Xposition Yposition Zposition Zrotation Xrotation Yrotation
                        End Site
                        {
                          OFFSET -0.0145077 -0.0180048 0.0127017
                        }
                      }
                    }
                  }
                  JOINT rMid1
                  {
                    OFFSET -5.6954 0.210002 2.1184
                    CHANNELS 6 Xposition Yposition Zposition Zrotation Xrotation Yrotation
                    JOINT rMid2
                    {
                      OFFSET -3.9766 -1.54 2.3863
                      CHANNELS 6 Xposition Yposition Zposition Zrotation Xrotation Yrotation
                      JOINT rMid2_End
                      {
                        OFFSET -1.4042 -1.926 1.125
                        CHANNELS 6 Xposition Yposition Zposition Zrotation Xrotation Yrotation
                        End Site
                        {
                          OFFSET -0.0139948 -0.0192916 0.0112994
                        }
                      }
                    }
                  }
                }
                JOINT rCarpal2
                {
                  OFFSET -2.0956 0.66 -0.3894
                  CHANNELS 6 Xposition Yposition Zposition Zrotation Xrotation Yrotation
                  JOINT rRing1
                  {
                    OFFSET -5.03951 -0.0899879 2.4971
                    CHANNELS 6 Xposition Yposition Zposition Zrotation Xrotation Yrotation
                    JOINT rRing2
                    {
                      OFFSET -3.7921 -1.55201 1.4806
                      CHANNELS 6 Xposition Yposition Zposition Zrotation Xrotation Yrotation
                      JOINT rRing2_End
                      {
                        OFFSET -1.4655 -1.808 0.960901
                        CHANNELS 6 Xposition Yposition Zposition Zrotation Xrotation Yrotation
                        End Site
                        {
                          OFFSET -0.0146934 -0.0180999 0.00959832
                        }
                      }
                    }
                  }
                  JOINT rPinky1
                  {
                    OFFSET -4.91411 -1.26899 0.359202
                    CHANNELS 6 Xposition Yposition Zposition Zrotation Xrotation Yrotation
                    JOINT rPinky2
                    {
                      OFFSET -3.14769 -1.68501 0.846199
                      CHANNELS 6 Xposition Yposition Zposition Zrotation Xrotation Yrotation
                      JOINT rPinky2_End
                      {
                        OFFSET -0.805498 -1.585 0.7955
                        CHANNELS 6 Xposition Yposition Zposition Zrotation Xrotation Yrotation
                        End Site
                        {
                          OFFSET -0.00810035 -0.0158035 0.00800029
                        }
                      }
                    }
                  }
                }
              }
            }
          }
        }
      }
    }
  }
  JOINT lThigh
  {
    OFFSET 8.367 -8.2066 0.5982
    CHANNELS 6 Xposition Yposition Zposition Zrotation Xrotation Yrotation
    JOINT lShin
    {
      OFFSET 2.1923 -43.463 -0.4932
      CHANNELS 6 Xposition Yposition Zposition Zrotation Xrotation Yrotation
      JOINT lFoot
      {
        OFFSET 0.733301 -45.8593 -2.6451
        CHANNELS 6 Xposition Yposition Zposition Zrotation Xrotation Yrotation
        End Site
        {
          OFFSET 2.6618 -4.2699 12.3931
        }
      }
    }
  }
  JOINT rThigh
  {
    OFFSET -8.367 -8.2066 0.5982
    CHANNELS 6 Xposition Yposition Zposition Zrotation Xrotation Yrotation
    JOINT rShin
    {
      OFFSET -2.1923 -43.463 -0.4931
      CHANNELS 6 Xposition Yposition Zposition Zrotation Xrotation Yrotation
      JOINT rFoot
      {
        OFFSET -0.733299 -45.8593 -2.6451
        CHANNELS 6 Xposition Yposition Zposition Zrotation Xrotation Yrotation
        End Site
        {
          OFFSET -2.6618 -4.2699 12.3931
        }
      }
    }
  }
}
MOTION
Frames:	4
Frame Time:	0.0333333
-77.4145 74.3851 -7.5822 -10.0535 -13.3581 108.715 1.658e-007 -1.186 -1.5018 3.5832 -3.16921 -2.54092 1.029e-006 9.96399 0.213399 7.03882 -6.48833 -4.88988 -1.29297e-007 13.134 -3.2573 7.03883 -6.48833 -4.8899 1.48747e-005 20.6863 -1.6905 0.0479661 9.37143 -2.64012 1.70002e-006 7.23805 -0.123707 4.74141 -3.45441 4.62002 1.7069 20.075 5.0056 22.847 -2.25141 -23.7631 13.6458 -0.0470174 -4.849 -59.0042 -0.43321 -70.77 28.3255 -0.975896 2.2888 -5.19319 -17.8818 -2.79958 22.1583 -0.529994 10.8316 28.442 -75.0744 10.8908 0.786004 0.111998 2.5817 0.73413 1.30492 4.71358 0.360098 -0.877999 4.2331 -2.75504 -0.208656 -5.03636 1.8127 -1.21601 2.2227 0.878714 0.118152 1.61307 0.9571 1.114 1.7695 3.18055e-015 3.18055e-015 -7.95139e-016 4.12461 0.486993 4.1451 -2.0247 3.65254 4.69114 3.4052 -1.45401 2.7682 0.712689 -0.318134 -0.289703 1.4531 -1.79499 1.2713 -0.513393 0.226571 0.210713 5.6954 0.209986 2.1184 1.3676 1.83471 0.385371 3.9766 -1.53999 2.3863 -1.78431 0.864413 0.75292 1.4042 -1.926 1.125 1.08792 -0.541184 -0.448108 2.0956 0.66 -0.3894 3.18055e-015 3.18055e-015 -7.95139e-016 5.0395 -0.0900135 2.4971 1.41566 -1.22087 -1.02767 3.7921 -1.55199 1.4806 -1.54472 0.810403 0.742272 1.4655 -1.808 0.960896 1.24716 -0.672836 -0.586725 4.9141 -1.269 0.359101 2.35983 -0.541994 0.60257 3.14771 -1.685 0.846198 -0.0810684 0.0463026 0.0378351 0.805497 -1.58501 0.795502 1.08771 -0.627135 -0.504321 -1.7069 20.075 5.0056 -4.50201 0.0804101 -4.77999 -13.6458 -0.0470107 -4.849 48.9778 -8.3361 83.4982 -28.3255 -0.975892 2.2888 0.0318087 -15.5053 37.864 -22.1583 -0.530008 10.8316 14.7487 -39.4793 11.2696 -0.785996 0.112005 2.5817 -19.2122 49.9312 17.7821 -0.360105 -0.877993 4.2331 -0.518232 0.461452 -1.59089 -1.8127 -1.216 2.2227 -2.77349 2.81311 -9.01337 -0.9571 1.114 1.7695 -1.76556e-031 3.18055e-015 3.18055e-015 -4.12461 0.487011 4.14511 -23.6185 3.40212 -15.5055 -3.4052 -1.45401 2.7682 39.4979 10.0978 -9.27477 -1.4531 -1.795 1.2713 38.8029 9.9861 -9.0615 -5.69541 0.210001 2.11841 -1.04217 5.48646 -10.0637 -3.9766 -1.54 2.3863 52.309 13.53 -14.1045 -1.4042 -1.926 1.125 44.0035 12.392 -11.1856 -2.0956 0.66 -0.3894 -1.76556e-031 3.18055e-015 3.18055e-015 -5.03951 -0.089988 2.49711 16.4925 0.275103 -5.65913 -3.79209 -1.55201 1.48059 37.334 11.9098 -10.7862 -1.4655 -1.808 0.960898 38.6322 12.1693 -11.2725 -4.91411 -1.26899 0.3592 24.6638 -0.263201 -2.0754 -3.14769 -1.68501 0.846198 30.529 11.315 -8.1944 -0.805498 -1.585 0.795496 30.4595 11.2958 -8.16994 8.367 -8.20659 0.598201 71.6952 -71.1593 63.8535 2.19232 -43.463 -0.493211 -9.1747 88.1442 9.4268 0.7333 -45.8593 -2.64509 -3.67749 -19.9711 -17.1621 -8.36701 -8.2066 0.598201 -51.3821 -35.7562 -49.4198 -2.19215 -43.463 -0.493084 55.4866 71.8342 -50.656 -0.733296 -45.8593 -2.64509 19.2075 -23.4302 14.5458 
-77.818 74.1187 -10.4932 -12.0237 -8.42363 108.105 -1.91502e-006 -1.18599 -1.5018 2.97014 -3.30363 -2.40928 4.00818e-007 9.964 0.213399 5.81332 -6.7251 -4.6555 1.05115e-006 13.134 -3.2573 5.81332 -6.72509 -4.65549 1.50929e-005 20.6864 -1.69049 0.131698 8.90296 -1.23092 5.0847e-007 7.23802 -0.123698 0.88092 -3.81271 4.46637 1.7069 20.075 5.0056 23.7954 -2.24047 -23.5435 13.6458 -0.0470121 -4.849 -59.8013 2.81399 -71.3575 28.3255 -0.975907 2.2888 -3.64546 -15.7186 -3.53674 22.1583 -0.529994 10.8316 20.5487 -78.0245 9.83275 0.786003 0.111996 2.5817 1.23912 1.48114 5.97223 0.360097 -0.877997 4.2331 -2.98258 -0.215044 -5.45148 1.8127 -1.21601 2.2227 1.24592 0.174996 2.28849 0.9571 1.114 1.7695 2.38542e-015 -3.18055e-015 -3.97569e-016 4.1246 0.486993 4.1451 -3.2963 4.53891 6.12862 3.4052 -1.454 2.7682 -0.246588 0.109179 0.101111 1.4531 -1.79499 1.2713 -1.69473 0.739098 0.702079 5.6954 0.209987 2.1184 0.346073 2.54294 0.871021 3.9766 -1.53999 2.3863 -3.056 1.46267 1.30276 1.4042 -1.926 1.125 0.0657463 -0.032368 -0.0274473 2.0956 0.66 -0.3894 2.38542e-015 -3.18055e-015 -3.97569e-016 5.0395 -0.0900135 2.4971 0.461501 -0.738383 -0.609077 3.7921 -1.55199 1.4806 -2.76192 1.4309 1.3387 1.4655 -1.808 0.9609 0.27472 -0.146775 -0.130183 4.9141 -1.269 0.359101 0.960778 -0.29585 0.399683 3.1477 -1.685 0.8462 -1.15722 0.653252 0.546602 0.805498 -1.58501 0.7955 0.113867 -0.0650621 -0.0531484 -1.7069 20.075 5.0056 -5.199 0.0482086 -3.27283 -13.6458 -0.0470146 -4.84899 49.0144 -9.39345 83.3426 -28.3255 -0.975893 2.2888 1.32226 -17.1352 39.2304 -22.1583 -0.530008 10.8316 14.2717 -36.7041 9.01175 -0.785998 0.112006 2.5817 -19.2122 49.9312 17.7821 -0.360107 -0.877993 4.2331 -0.518232 0.46146 -1.59091 -1.8127 -1.216 2.2227 -2.77348 2.81311 -9.01338 -0.9571 1.114 1.7695 -1.59028e-015 3.18055e-015 3.18055e-015 -4.12461 0.487011 4.14511 -23.6185 3.40213 -15.5055 -3.4052 -1.454 2.76819 39.4979 10.0978 -9.27477 -1.4531 -1.795 1.2713 38.8029 9.98611 -9.0615 -5.69541 0.210001 2.11841 -1.04218 5.48646 -10.0637 -3.9766 -1.54 2.3863 52.309 13.53 -14.1045 -1.4042 -1.926 1.125 44.0035 12.3921 -11.1856 -2.0956 0.66 -0.3894 -1.59028e-015 3.18055e-015 3.18055e-015 -5.03951 -0.0899877 2.4971 16.4925 0.275143 -5.65913 -3.7921 -1.552 1.4806 37.3341 11.9096 -10.7862 -1.4655 -1.80801 0.960896 38.6322 12.1693 -11.2725 -4.91411 -1.26899 0.359208 24.6637 -0.263183 -2.07543 -3.14769 -1.68501 0.846196 30.529 11.315 -8.19441 -0.805498 -1.585 0.795496 30.4595 11.2958 -8.16994 8.367 -8.2066 0.598202 60.8782 -72.5353 60.807 2.1923 -43.463 -0.493219 -16.3758 88.9942 16.5696 0.733301 -45.8593 -2.6451 -0.708414 -22.0739 -15.1877 -8.367 -8.20659 0.598203 -59.4739 -34.8312 -49.9444 -2.19241 -43.463 -0.493104 52.3721 71.3297 -47.6214 -0.733294 -45.8593 -2.64509 21.5005 -20.5887 15.4935 
-78.0874 74.4777 -13.392 -13.9685 -3.2448 106.8 -2.85142e-007 -1.186 -1.5018 2.34345 -3.40684 -2.14779 -7.63843e-007 9.964 0.213402 4.56957 -6.89652 -4.16535 8.17288e-007 13.134 -3.2573 4.56957 -6.89652 -4.16535 3.93995e-006 20.6859 -1.6905 0.2115 8.59144 0.348717 -2.98248e-006 7.23801 -0.123697 -3.12082 -4.22712 4.53658 1.7069 20.075 5.0056 24.1033 -2.22557 -23.3346 13.6458 -0.0470106 -4.849 -60.6491 5.56074 -70.7684 28.3255 -0.975895 2.2888 -2.49184 -13.9111 -4.19225 22.1583 -0.529996 10.8316 5.55896 -76.0165 3.54428 0.786004 0.111997 2.5817 1.69145 1.64776 7.11023 0.360096 -0.878 4.2331 -3.18838 -0.219324 -5.82699 1.8127 -1.21601 2.2227 1.57742 0.230089 2.89903 0.9571 1.114 1.7695 1.19271e-015 3.18055e-015 -4.07509e-015 4.1246 0.486993 4.1451 -4.46273 5.3355 7.43868 3.4052 -1.45401 2.7682 -1.11673 0.489871 0.460735 1.4531 -1.79499 1.2713 -2.76703 1.1939 1.15554 5.6954 0.209988 2.1184 -0.584345 3.17729 1.31798 3.9766 -1.53999 2.3863 -4.21138 1.99311 1.8115 1.4042 -1.926 1.125 -0.861936 0.421255 0.360813 2.0956 0.66 -0.3894 1.19271e-015 3.18055e-015 -4.07509e-015 5.0395 -0.0900129 2.4971 -0.40432 -0.308475 -0.223188 3.7921 -1.55199 1.4806 -3.86863 1.98104 1.88954 1.4655 -1.808 0.9609 -0.608409 0.322331 0.290302 4.9141 -1.269 0.359102 -0.307078 -0.080856 0.229344 3.1477 -1.685 0.846201 -2.13533 1.19384 1.0166 0.805498 -1.58501 0.7955 -0.782858 0.415308 0.359108 -1.7069 20.075 5.0056 -5.70576 0.0204205 -1.8904 -13.6458 -0.0470122 -4.849 49.0432 -9.88784 83.087 -28.3255 -0.975885 2.28881 2.53076 -18.3148 41.0954 -22.1583 -0.530007 10.8316 13.7375 -34.1605 6.87332 -0.785997 0.112005 2.5817 -19.2123 49.9313 17.7821 -0.360108 -0.877993 4.2331 -0.518263 0.461469 -1.59089 -1.8127 -1.216 2.2227 -2.77348 2.81311 -9.01339 -0.9571 1.114 1.7695 -1.59028e-015 3.18055e-015 3.97569e-015 -4.12461 0.487012 4.14511 -23.6185 3.40217 -15.5055 -3.40519 -1.454 2.76819 39.4979 10.0979 -9.2748 -1.4531 -1.795 1.2713 38.8028 9.98611 -9.0615 -5.69541 0.210001 2.11841 -1.0422 5.48648 -10.0637 -3.9766 -1.54 2.3863 52.309 13.53 -14.1045 -1.4042 -1.926 1.125 44.0035 12.3921 -11.1856 -2.0956 0.66 -0.3894 -1.59028e-015 3.18055e-015 3.97569e-015 -5.03951 -0.0899869 2.4971 16.4925 0.275196 -5.65915 -3.7921 -1.55201 1.4806 37.334 11.9096 -10.7863 -1.4655 -1.80801 0.960896 38.6321 12.1693 -11.2725 -4.91411 -1.26899 0.359205 24.6637 -0.263122 -2.07545 -3.14769 -1.68501 0.846194 30.529 11.315 -8.1944 -0.805499 -1.585 0.795496 30.4595 11.2959 -8.16993 8.367 -8.20659 0.598196 47.8873 -72.4315 55.9899 2.1923 -43.463 -0.493217 -9.44552 88.3965 9.68613 0.733298 -45.8593 -2.64509 2.2296 -23.7513 -13.1154 -8.367 -8.20659 0.598198 -66.0136 -34.8825 -48.9146 -2.21253 -43.462 -0.494487 45.6284 69.8291 -40.9927 -0.733303 -45.8593 -2.64511 23.6417 -17.659 14.8262 
-78.0703 75.462 -16.2095 -15.9953 2.11022 105.003 5.60464e-006 -1.186 -1.5018 1.70035 -3.57651 -1.83395 2.80696e-007 9.964 0.213397 3.29467 -7.20424 -3.57123 3.63083e-007 13.134 -3.2573 3.29467 -7.20424 -3.57125 2.34031e-005 20.6863 -1.6905 0.302535 8.49139 2.3874 -8.1659e-007 7.23803 -0.123701 -7.11446 -4.31876 4.31108 1.7069 20.075 5.0056 24.3128 -2.16227 -22.554 13.6458 -0.0470113 -4.849 -61.9704 8.74661 -68.9609 28.3255 -0.975896 2.2888 -1.2673 -12.0825 -5.61488 22.1583 -0.529992 10.8316 -16.1322 -75.163 -8.57072 0.786004 0.111997 2.5817 2.08211 1.79853 8.10088 0.360098 -0.877998 4.2331 -3.36768 -0.222011 -6.15404 1.8127 -1.21601 2.2227 1.86563 0.280972 3.43045 0.9571 1.114 1.7695 -3.18055e-015 0 1.59028e-015 4.12461 0.486993 4.1451 -5.49165 6.02486 8.58748 3.4052 -1.454 2.7682 -1.87643 0.81702 0.778583 1.4531 -1.79499 1.2713 -3.70393 1.58294 1.5574 5.6954 0.209988 2.1184 -1.39984 3.72475 1.71331 3.9766 -1.53999 2.3863 -5.22167 2.45097 2.26724 1.4042 -1.926 1.125 -1.67235 0.811159 0.704855 2.0956 0.66 -0.3894 -3.18055e-015 0 1.59028e-015 5.0395 -0.090013 2.4971 -1.16067 0.0608036 0.118555 3.7921 -1.55199 1.4806 -4.83702 2.45138 2.37799 1.4655 -1.808 0.960899 -1.38031 0.725447 0.662445 4.9141 -1.269 0.359098 -1.41321 0.100258 0.0910727 3.1477 -1.685 0.846198 -2.99087 1.65802 1.43345 0.805501 -1.585 0.795497 -1.54403 0.868275 0.731987 -1.7069 20.075 5.0056 -5.781 -0.00484883 -0.468653 -13.6458 -0.0470093 -4.849 49.4853 -9.54429 82.7104 -28.3255 -0.97589 2.2888 4.37599 -18.9562 43.4936 -22.1583 -0.530007 10.8316 12.8437 -30.8492 4.74404 -0.785996 0.112005 2.5817 -19.2121 49.9311 17.782 -0.360103 -0.877995 4.2331 -0.518259 0.461471 -1.59087 -1.8127 -1.216 2.2227 -2.7735 2.81311 -9.01338 -0.9571 1.114 1.7695 -1.59028e-015 3.18055e-015 -8.74653e-015 -4.12461 0.48701 4.14511 -23.6186 3.40227 -15.5055 -3.4052 -1.454 2.7682 39.4979 10.0979 -9.2748 -1.4531 -1.795 1.27129 38.8028 9.98613 -9.0615 -5.69541 0.209999 2.11841 -1.04218 5.4865 -10.0637 -3.9766 -1.54 2.3863 52.309 13.5301 -14.1045 -1.4042 -1.926 1.125 44.0034 12.3921 -11.1856 -2.0956 0.66 -0.3894 -1.59028e-015 3.18055e-015 -8.74653e-015 -5.03951 -0.0899876 2.4971 16.4926 0.275079 -5.65913 -3.7921 -1.55201 1.48061 37.334 11.9097 -10.7862 -1.4655 -1.80801 0.960897 38.6321 12.1694 -11.2725 -4.9141 -1.26899 0.359199 24.6638 -0.263231 -2.0754 -3.14769 -1.68501 0.846197 30.529 11.3151 -8.1944 -0.805498 -1.585 0.795496 30.4595 11.2958 -8.1699 8.367 -8.2066 0.598198 35.1195 -70.934 51.7315 2.1923 -43.463 -0.493198 -4.10989 86.2757 4.37328 0.733297 -45.8593 -2.64509 4.97333 -24.9917 -11.5399 -8.367 -8.2066 0.598206 -71.1717 -35.4772 -46.817 -2.19256 -43.463 -0.493127 36.9102 66.9078 -32.3017 -0.733297 -45.8594 -2.64508 25.762 -14.8198 13.3787 
